<svg id="Layer_1" data-name="Layer 1" xmlns="http://www.w3.org/2000/svg" viewBox="0 0 144.26 54.76"><defs><style>.cls-1{fill:none;}</style></defs><path d="M88.44,358.29a15.63,15.63,0,0,0-6.87-9.83,15.79,15.79,0,0,0-23,19.71c3,6.55,10,10.58,17.1,9,3.51-.78,5.37.37,7.15,3.12a3.61,3.61,0,0,1-.76.43c-3.26.78-4.64,2.71-4.14,6.12.22,1.47-.77,2.33-2.35,2.33h-5A2.32,2.32,0,0,1,68,386.75c0-.27,0-.53,0-.8,0-3.34-1.76-5.35-5.07-5.49a4.46,4.46,0,0,0-2.68,1.42c-2.63,2.45-3,2.5-5.52,0-.19-.18-.37-.38-.57-.56-3.5-3.5-3.45-3.47-.4-7.38a4.48,4.48,0,0,0,.49-2.73c0-.7-.59-1.34-.8-2a2.85,2.85,0,0,0-3.3-2.25,11.24,11.24,0,0,1-2,0,2.22,2.22,0,0,1-2.32-2.45c0-1.74,0-3.48,0-5.22a2.11,2.11,0,0,1,2.28-2.43c.4,0,.8,0,1.2,0a5.26,5.26,0,0,0,5.19-5.47,5.57,5.57,0,0,0-1.75-2.75c-2.17-2.31-2.21-2.83.06-5.09l2.84-2.84a2.21,2.21,0,0,1,3.5,0l.43.43c2.42,2.37,4.92,2.53,7.43.2a4.42,4.42,0,0,0,.93-2.87c.12-3.71.3-4,4-4h.4c5.14,0,5.09,0,5.65,5a4,4,0,0,0,1.43,2.18c.57.5,1.49.59,2.17,1,1.63.93,2.85.48,4.09-.79,2.7-2.76,3.06-2.72,5.76,0,.14.14.28.29.43.42,3.48,3.5,3.44,3.46.37,7.39a3.57,3.57,0,0,0-.52,2.55C91.91,353.24,88.44,358.29,88.44,358.29Z" transform="translate(-45.81 -334.45)"/><path d="M67.62,373.25l10.13-12.48H67.94v-.5H78.58v.32L68.44,373.06H78.63v.51h-11Z" transform="translate(-45.81 -334.45)"/><path d="M82.12,355h.82v1.52h-.82Zm.13,5.32h.56v13.3h-.56Z" transform="translate(-45.81 -334.45)"/><path d="M99.83,369.44a6.26,6.26,0,0,1-6.14,4.45A6.67,6.67,0,0,1,87,366.94v-.05A6.67,6.67,0,0,1,93.69,360a6.25,6.25,0,0,1,6.14,4.44v-4.12h.56v17.55h-.56Zm0-2.5v-.05a6.23,6.23,0,0,0-6.15-6.41,6,6,0,0,0-6.09,6.38v.06a6.11,6.11,0,0,0,6.09,6.43A6.19,6.19,0,0,0,99.86,366.94Z" transform="translate(-45.81 -334.45)"/><path d="M109.91,367.16l-5.5,6.41h-.64l5.83-6.76L104,360.27h.67l5.26,6.2,5.3-6.2h.64l-5.62,6.54,5.83,6.76h-.67Z" transform="translate(-45.81 -334.45)"/><path d="M127.63,369.68v-7.39h-1.78v-2.77h1.78v-3.85h3.22v3.85h3.78v2.77h-3.78v6.89a1.53,1.53,0,0,0,1.73,1.75,4.27,4.27,0,0,0,2-.48v2.64a5.62,5.62,0,0,1-2.89.72C129.31,373.81,127.63,372.77,127.63,369.68Z" transform="translate(-45.81 -334.45)"/><path d="M136.7,366.62v-.05a7.49,7.49,0,0,1,15-.05v.05a7.49,7.49,0,0,1-15,.05Zm11.76,0v-.05a4.34,4.34,0,0,0-4.31-4.52,4.22,4.22,0,0,0-4.23,4.47v.05a4.35,4.35,0,0,0,4.28,4.52A4.24,4.24,0,0,0,148.46,366.62Z" transform="translate(-45.81 -334.45)"/><path d="M154.18,366.62v-.05a7.49,7.49,0,0,1,15-.05v.05a7.35,7.35,0,0,1-7.53,7.32A7.27,7.27,0,0,1,154.18,366.62Zm11.76,0v-.05a4.34,4.34,0,0,0-4.31-4.52,4.22,4.22,0,0,0-4.23,4.47v.05a4.35,4.35,0,0,0,4.28,4.52A4.24,4.24,0,0,0,165.94,366.62Z" transform="translate(-45.81 -334.45)"/><path d="M172.62,354.15h3.22v19.42h-3.22Z" transform="translate(-45.81 -334.45)"/><path d="M178.9,371.73l1.43-2.18a7.93,7.93,0,0,0,4.6,1.73c1.39,0,2.18-.59,2.18-1.52v-.05c0-1.09-1.49-1.46-3.13-2-2.08-.58-4.39-1.43-4.39-4.12v-.05c0-2.66,2.2-4.29,5-4.29a9.79,9.79,0,0,1,5.16,1.6l-1.28,2.29a8.1,8.1,0,0,0-4-1.33c-1.25,0-2,.58-2,1.41v.05c0,1,1.52,1.44,3.16,2,2.05.64,4.37,1.57,4.37,4.09v.06c0,2.95-2.29,4.41-5.22,4.41A9.86,9.86,0,0,1,178.9,371.73Z" transform="translate(-45.81 -334.45)"/><line class="cls-1" x1="52.33" y1="14.78" x2="46.31" y2="18.17"/></svg>